<svg width="329" height="94" viewBox="0 0 329 94" fill="none" xmlns="http://www.w3.org/2000/svg">
<rect width="329" height="92" fill="#F9FAFB"/>
<mask id="mask0" mask-type="alpha" maskUnits="userSpaceOnUse" x="-1" y="-1" width="331" height="94">
<rect width="329" height="92" fill="white" stroke="white"/>
</mask>
<g mask="url(#mask0)">
</g>
<path d="M187.929 9.03834C187.863 8.51659 187.729 8.00562 187.531 7.51824C187.48 7.33189 187.352 7.17554 187.18 7.0874C187.066 7.05785 186.946 7.05652 186.832 7.08352L185.045 7.3562C184.895 7.36301 184.752 7.4185 184.637 7.51418C184.404 7.75827 184.634 8.15132 184.626 8.48807C184.618 8.86675 184.281 9.17412 183.915 9.27581C183.542 9.35106 183.156 9.3463 182.785 9.26184L180.286 8.87461C181.022 8.64031 181.677 8.2044 182.177 7.61664C182.505 7.22818 182.68 6.50293 182.205 6.31897C182.064 6.28033 181.917 6.26854 181.771 6.28422C180.639 6.293 179.748 5.35038 178.688 4.95338C177.297 4.46585 175.749 4.92606 174.852 6.09381L176.183 6.15781C176.308 6.15091 176.433 6.18394 176.538 6.25211C176.829 6.49112 176.467 6.95022 176.508 7.32449C176.561 7.81075 177.209 7.91457 177.697 7.96374C178.185 8.01291 178.804 8.40834 178.569 8.83785C176.116 9.68043 173.62 7.1908 171.044 7.49727C170.392 7.57483 169.776 7.83027 169.14 7.99088C165.251 8.97203 161.231 6.35421 157.258 6.90862C156.375 7.05875 155.507 7.28703 154.665 7.59075C154.124 7.76778 153.56 7.95909 153.167 8.36965C152.775 8.78022 152.625 9.48236 152.997 9.91166C151.971 9.99589 150.939 9.89801 149.947 9.62256C150.493 9.92529 150.83 10.5012 150.826 11.1242C149.224 11.3847 147.665 11.8588 146.19 12.5338C146.465 12.9903 146.787 13.4173 147.15 13.8084L145.122 15.1074C145.807 15.2795 146.161 16.211 145.763 16.7927C146.473 16.4776 146.913 15.6625 147.673 15.4972C148.17 15.3889 148.677 15.5919 149.149 15.7826C149.621 15.9733 150.14 16.1582 150.628 16.0151C151.117 15.872 151.477 15.2401 151.167 14.8375C153.256 14.2298 155.414 13.8935 157.589 13.8369C157.757 13.8159 157.927 13.8481 158.076 13.929C158.359 14.1248 158.284 14.5479 158.269 14.8913C158.254 15.2346 158.522 15.6858 158.83 15.531C158.468 15.8441 158.777 16.4334 159.124 16.7625C159.472 17.0917 159.89 17.5459 159.678 17.9741C159.622 18.0858 159.528 18.1753 159.475 18.288C159.317 18.6209 159.567 19.0089 159.863 19.23C160.158 19.451 160.519 19.6055 160.724 19.9116C160.929 20.2177 160.836 20.7535 160.47 20.7962L159.427 19.4768C159.071 19.845 158.827 20.3062 158.724 20.8071C159.829 21.708 159.995 23.5415 159.07 24.6254C158.597 25.1793 157.925 25.5158 157.338 25.9479C156.751 26.3799 156.208 26.9951 156.21 27.7224C156.212 28.979 156.109 30.1465 156.581 31.3116C157.452 33.4598 158.457 35.5513 159.591 37.5738C159.889 38.1049 160.274 38.6869 160.877 38.7784C160.115 36.9276 159.428 35.0481 158.818 33.1398C159.216 33.1413 159.675 33.1728 159.908 33.4939C160.101 33.7598 160.059 34.1213 160.119 34.444C160.196 34.7566 160.323 35.0546 160.496 35.3263L164.136 41.793C164.438 42.329 164.784 42.9045 165.361 43.1216C165.73 43.2604 166.156 43.2342 166.496 43.434C166.762 43.5907 166.941 43.8687 167.212 44.0163C167.979 44.4334 169.045 43.6333 169.762 44.1314C169.967 44.2739 170.097 44.5001 170.286 44.6632C170.948 45.2348 172.034 44.8524 172.798 45.2788C173.29 45.5536 173.546 46.1032 173.808 46.6013C174.466 47.8489 175.531 49.0712 176.941 49.1705C177.384 49.2017 177.836 49.118 178.269 49.2162C178.702 49.3145 179.128 49.6913 179.059 50.1286C178.939 50.8784 179.311 51.6993 179.211 52.4519C179.029 53.8227 177.08 54.4251 176.912 55.7977C176.876 56.0982 176.933 56.4085 176.861 56.7026C176.773 57.0632 176.502 57.3567 176.405 57.7151C176.222 58.3942 176.71 59.0701 177.246 59.527C177.782 59.9839 178.422 60.3779 178.715 61.0174C179.024 61.6935 178.872 62.4817 178.973 63.2181C179.193 64.8258 180.585 66.0176 182.018 66.7861C182.455 67.0203 182.924 67.2469 183.206 67.6531C183.575 68.1833 183.538 68.8821 183.662 69.5156C183.963 71.067 185.273 72.3452 185.31 73.9251C185.337 75.048 184.711 76.0666 184.337 77.1261C183.627 79.1803 183.851 81.4407 184.948 83.3174C185.228 83.7884 185.562 84.2324 185.76 84.743C186.113 85.6541 185.999 86.6899 186.324 87.6112C186.755 88.8292 187.937 89.8353 187.824 91.1217C188.361 92.2337 189.547 92.78 190.739 93.111L192.876 93.7041C193.285 93.8177 193.712 93.9322 194.129 93.8499C194.545 93.7677 194.943 93.4227 194.932 92.9993C193.884 92.7637 192.803 92.5131 191.939 91.8763C191.076 91.2396 190.484 90.1057 190.812 89.0856C190.964 88.6126 191.287 88.0664 190.979 87.6755C190.803 87.4517 190.482 87.3933 190.283 87.1891C189.974 86.8706 190.08 86.3356 190.302 85.9516C190.525 85.5676 190.847 85.2244 190.937 84.79C191.029 84.2922 190.802 83.7894 190.367 83.529C190.763 83.3798 191.123 83.1492 191.424 82.8522C191.703 82.5355 191.831 82.0472 191.612 81.6871C192.262 81.7693 193.029 81.8095 193.456 81.3139C193.796 80.9181 193.773 80.3264 193.638 79.8224C193.504 79.3185 193.276 78.829 193.269 78.3075C194.768 78.3783 196.27 78.3275 197.76 78.1556C197.545 77.4317 197.055 76.82 196.395 76.4502C197.07 76.3363 197.685 75.5303 197.898 74.8816C198.111 74.2328 198.057 73.5261 197.925 72.8561C197.875 72.6836 197.868 72.5013 197.905 72.3255C197.981 72.0839 198.219 71.9365 198.439 71.8104L201.79 69.8913C201.99 69.7914 202.171 69.658 202.326 69.4969C202.677 69.0856 202.625 68.4649 202.445 67.9555C202.265 67.446 201.977 66.967 201.908 66.4313C201.701 64.8294 203.421 63.6801 204.001 62.1722C204.229 61.5804 204.275 60.9372 204.319 60.3048C204.367 59.6257 204.37 58.8369 203.847 58.3992C203.346 57.9797 202.563 58.0733 202.038 57.683C201.557 57.3253 201.391 56.6304 200.866 56.3414C200.389 56.079 199.791 56.2459 199.26 56.1225C198.326 55.9052 197.738 54.8314 196.784 54.732C196.246 54.6759 195.636 54.9384 195.195 54.6257C194.806 54.3502 194.791 53.7965 194.717 53.3266C194.451 51.831 193.279 50.6588 191.78 50.3891C191.225 50.3003 190.621 50.334 190.149 50.0298C189.671 49.7218 189.452 49.1452 189.076 48.7186C188.471 48.0311 187.517 47.7869 186.624 47.5775L182.992 46.7259C182.347 46.5747 181.516 46.4946 181.17 47.0579C181.067 47.2724 180.995 47.4998 180.954 47.7339C180.688 48.6027 179.891 49.2013 178.98 49.2158C178.675 48.6979 178.182 48.3173 177.603 48.1535C177.235 48.0511 176.84 48.0397 176.489 47.8891C176.103 47.7009 175.811 47.3622 175.682 46.9527C175.554 46.5431 175.6 46.0989 175.81 45.7245C176.241 44.9601 176.104 44.0028 175.477 43.3881C174.86 42.8351 173.966 42.7014 173.138 42.7568C172.921 42.2847 173.283 41.7521 173.674 41.409C174.065 41.066 174.54 40.7287 174.625 40.2164C174.759 39.4106 173.728 38.7985 172.945 39.0388C172.162 39.2791 171.663 40.0374 171.332 40.7848C171.143 41.2137 170.982 41.6653 170.683 42.027C170.384 42.3886 169.902 42.6475 169.447 42.5315C168.802 42.3672 168.553 41.6034 168.411 40.9554C168.219 40.0859 168.027 39.2043 168.067 38.315C168.107 37.4257 168.408 36.5126 169.065 35.9106C170.137 34.9296 171.781 35.0257 173.227 35.1822C172.885 34.7983 172.97 34.1514 173.335 33.79C173.727 33.4429 174.265 33.311 174.774 33.4376C175.21 33.528 175.602 33.7621 175.888 34.1021C176.299 34.6018 176.416 35.2764 176.727 35.8435C177.037 36.4107 177.736 36.8944 178.308 36.5901C178.801 36.3273 178.88 35.6445 178.757 35.0999C178.634 34.5554 178.373 34.0259 178.417 33.4695C178.502 32.4078 179.606 31.7688 180.58 31.3315C181.554 30.8943 182.669 30.3062 182.823 29.2524C182.828 29.046 182.867 28.8419 182.939 28.6481C183.047 28.477 183.197 28.3362 183.375 28.2392C186.217 26.3661 189.106 24.4701 192.355 23.4466C192.524 23.3933 192.544 23.4525 192.716 23.4108C192.957 23.2719 192.797 22.8875 192.566 22.7327C192.335 22.5779 192.026 22.4591 191.968 22.1877C191.924 21.9882 192.042 21.7923 192.073 21.5904C192.148 21.0946 191.553 20.6367 191.091 20.835C190.83 20.4903 191.347 20.0899 191.764 19.9753C193.018 19.6312 194.305 19.4215 195.603 19.3499C195.753 19.3261 195.907 19.3522 196.04 19.424C196.258 19.5746 196.23 19.9201 196.076 20.1351C195.921 20.3501 195.681 20.4851 195.488 20.667C195.059 21.0837 194.899 21.704 195.072 22.2756C195.75 22.6194 196.487 22.9733 197.238 22.8522C197.988 22.7311 198.655 21.8899 198.302 21.2182C197.973 20.5926 196.986 20.4515 196.816 19.7659C196.618 18.9632 197.757 18.2493 197.5 17.4631C197.388 17.1187 197.044 16.916 196.78 16.6674C196.141 16.0434 195.953 15.0924 196.306 14.2733C195.433 14.4265 194.54 14.1478 193.91 13.5258C193.337 12.9491 192.88 12.0394 192.067 12.0652C191.32 12.0889 190.677 12.9576 189.979 12.6926C189.807 12.6274 189.626 12.4947 189.459 12.5724C189.349 12.644 189.277 12.7622 189.266 12.893C189.088 13.739 189.393 14.7028 188.931 15.4338C188.428 16.2292 187.264 16.3395 186.654 17.0568C186.323 17.4462 186.195 17.9709 185.891 18.3814C185.586 18.7919 184.94 19.0529 184.575 18.6952C184.945 17.9374 184.741 17.0254 184.083 16.4966C183.744 16.276 183.378 16.0987 182.995 15.9689C182.566 15.7881 182.159 15.5616 181.779 15.2934C181.589 15.179 181.435 15.0142 181.333 14.8173C181.253 14.5707 181.264 14.3037 181.364 14.0644C181.741 12.9853 182.687 12.2035 183.82 12.0339C184.307 11.9679 184.873 11.9912 185.194 11.6217C185.365 11.4262 185.454 11.1306 185.701 11.0512C185.859 11.0196 186.023 11.0397 186.169 11.1087L187.984 11.7458C188.186 11.8369 188.409 11.8737 188.631 11.8524C188.858 11.8218 189.023 11.6215 189.01 11.393C188.952 11.0924 188.488 10.9482 188.53 10.645C188.554 10.5468 188.607 10.458 188.682 10.3904C190.008 8.98271 191.896 8.23942 193.828 8.36367C194.058 8.73886 193.695 9.18316 193.394 9.50345C193.092 9.82375 192.85 10.396 193.215 10.6426C193.364 10.7186 193.53 10.7559 193.698 10.7511C194.145 10.8114 194.579 10.9428 194.984 11.1402C195.611 11.4124 196.226 11.7102 196.83 12.0336C196.776 11.637 196.725 11.2193 196.876 10.8485C197.027 10.4777 197.455 10.1869 197.829 10.3313C198.19 10.4704 198.375 10.9466 198.759 10.9902C199.272 11.0484 199.474 10.2934 199.26 9.82544C199.046 9.35748 198.622 8.96564 198.587 8.4525C198.563 8.10631 198.695 7.67697 198.417 7.46734C198.319 7.40441 198.207 7.36524 198.09 7.35294L191.166 6.08236C190.755 6.00691 190.161 6.06473 190.143 6.48124C190.133 6.71372 190.341 6.94372 190.249 7.15748C190.15 7.38562 189.827 7.36476 189.592 7.44545C189.226 7.57066 189.043 8.00343 189.078 8.38721C189.142 8.76855 189.29 9.13098 189.511 9.44851C189.061 9.26069 188.379 9.22616 187.929 9.03834Z" fill="#E4E7EB"/>
<path d="M182.004 3.04778C181.083 2.74055 180.069 3.04645 179.467 3.8134C179.35 3.96921 179.251 4.184 179.349 4.35272C179.49 4.5946 179.849 4.49906 180.114 4.41254C180.504 4.27242 180.927 4.26224 181.323 4.3835C181.571 4.46952 181.794 4.62155 182.044 4.70432C182.291 4.80873 182.576 4.76681 182.784 4.59534C182.955 4.4192 182.966 4.14537 182.966 3.89868C182.99 3.73152 182.938 3.56233 182.825 3.4382C182.725 3.37986 182.612 3.34638 182.497 3.34054C182.238 3.29235 182.005 3.15481 181.836 2.95165" fill="#E4E7EB"/>
<path d="M184.875 2.93039C184.649 2.92293 184.434 2.9874 184.307 3.10049C184.179 3.21358 184.157 3.35895 184.25 3.48406C184.59 3.54046 184.945 3.55455 185.294 3.52548C185.651 3.49185 185.939 3.33126 186.025 3.11836C185.613 3.16386 185.189 3.11458 184.834 2.98012" fill="#E4E7EB"/>
<path d="M193.223 1.24166C192.423 1.41474 191.646 1.68337 190.908 2.04197C191.623 2.32138 192.073 3.04305 192.019 3.81984C191.988 3.9651 191.992 4.11587 192.03 4.25941C192.115 4.46917 192.361 4.54788 192.578 4.60172C192.967 4.72224 193.373 4.77502 193.779 4.75784C194.192 4.73585 194.566 4.50314 194.774 4.13914C194.833 3.96909 194.902 3.80287 194.981 3.64143C195.5 2.83676 197.042 3.80973 197.599 3.032C197.796 2.75803 197.778 2.34564 198.034 2.12855C198.166 2.03396 198.319 1.97437 198.48 1.95512C199.601 1.72847 200.733 1.56436 201.871 1.46351C202.411 1.41573 203.114 1.2186 203.118 0.667523C201.086 0.261387 198.98 0.54984 197.126 1.48804C196.458 1.82858 195.575 2.54491 194.931 2.09344C194.69 1.9244 194.702 1.46922 194.371 1.27914C194.032 1.0848 193.583 1.16384 193.223 1.24166Z" fill="#E4E7EB"/>
<path d="M199.794 2.58958L200.755 2.77433C200.398 2.75847 200.05 2.89756 199.802 3.15607C199.554 3.41458 199.429 3.76746 199.46 4.12457C200.359 4.42537 201.34 4.13266 202.288 4.17264C203.236 4.21263 204.339 4.89014 204.177 5.82555C204.128 6.10839 203.965 6.39103 204.05 6.66521C204.109 6.85738 204.279 6.99374 204.374 7.17073C204.574 7.53954 204.414 8.00603 204.163 8.34129C203.911 8.67655 203.573 8.94405 203.352 9.30034C202.803 10.1865 203.115 11.3321 203.442 12.3221C203.537 12.6961 203.712 13.0452 203.954 13.345C204.439 13.8607 205.229 13.9055 205.936 13.9159C206.451 13.9234 207.041 13.8979 207.366 13.4988C207.791 12.9777 207.494 12.1647 207.774 11.5531C208.028 10.9976 208.676 10.7593 209.262 10.5903C210.337 10.2807 211.433 10.0175 212.449 9.54984C213.71 8.96911 214.89 8.06412 216.276 7.98937C216.665 7.9684 217.064 8.01434 217.439 7.90767C217.814 7.80101 218.17 7.47679 218.141 7.08794C218.117 6.75571 217.836 6.51174 217.617 6.26128C217.397 6.01082 217.225 5.62569 217.427 5.36071L221.062 4.68132C220.804 3.97867 220.603 3.05326 221.195 2.59589C221.409 2.43087 221.695 2.36492 221.877 2.16542C222.187 1.82539 222.031 1.23967 221.673 0.9505C221.315 0.661329 220.831 0.5942 220.373 0.5561C218.779 0.423645 217.176 0.51117 215.579 0.598762C212.457 0.769984 209.336 0.941206 206.214 1.11243C205.585 1.1469 204.86 1.09424 204.284 1.30877C203.796 1.49039 203.449 1.82378 202.891 1.94091C201.86 2.15715 200.727 2.01082 199.794 2.58958Z" fill="#E4E7EB"/>
<path d="M217.546 10.3456C217.449 10.3302 217.351 10.3529 217.27 10.4091C217.217 10.4685 217.185 10.5446 217.18 10.6247C217.119 10.9784 217.192 11.3425 217.384 11.644C217.584 11.9452 217.929 12.1129 218.286 12.082C218.713 12.0269 219.027 11.6578 219.42 11.4777C220.024 11.2004 222.593 10.7681 220.816 9.79522C220.204 9.45995 219.808 9.75591 219.326 9.97671C218.777 10.2614 218.161 10.389 217.546 10.3456Z" fill="#E4E7EB"/>
<path d="M232.979 2.31757C232.766 2.40234 232.588 2.55342 232.473 2.74723C232.362 2.95163 232.436 3.20458 232.639 3.32233C232.719 3.35043 232.803 3.36346 232.888 3.36072L233.753 3.38592C234.121 3.39663 234.58 3.47296 234.679 3.81832C234.752 4.07477 234.588 4.4043 234.786 4.58756C234.871 4.65174 234.973 4.69061 235.08 4.6995C235.365 4.77088 235.663 4.78025 235.952 4.72693C236.582 4.56229 236.251 4.18766 236.449 3.85408C236.752 3.34367 236.7 3.65264 237.235 3.36012C237.629 3.14409 238.139 2.75221 237.81 2.20161C237.237 1.24412 233.825 1.90624 232.979 2.31757Z" fill="#E4E7EB"/>
<path d="M250.438 1.8143L249.922 1.88815C248.756 2.05468 247.585 2.22274 246.462 2.59748C246.948 2.80318 247.458 2.93712 247.977 2.99561C248.263 3.01063 248.547 3.05387 248.826 3.12481C249.322 3.28284 249.821 3.69094 250.3 3.48189C250.597 3.35227 250.694 3.02116 250.94 2.84568C251.11 2.72451 251.754 2.52839 251.826 2.40609C252.408 1.41738 250.886 1.75034 250.438 1.8143Z" fill="#E4E7EB"/>
<path d="M252.39 4.01749C251.732 4.40183 251.122 4.86886 250.573 5.40816C250.342 5.63544 250.106 5.91811 250.127 6.24921C250.155 6.68927 250.603 6.94453 250.992 7.11648L252.565 7.81295C252.756 7.53168 252.581 7.14341 252.384 6.867C252.187 6.59059 251.952 6.2708 252.039 5.93818C252.139 5.5586 252.582 5.42925 252.953 5.36386C253.558 5.25732 255.189 5.26586 254.993 4.24681C254.762 3.04605 252.997 3.66269 252.39 4.01749Z" fill="#E4E7EB"/>
<path d="M252.069 70.0431C251.912 70.4837 251.897 71.0028 252.168 71.3875C252.473 71.8192 253.081 71.9801 253.607 71.8706C254.132 71.7351 254.599 71.4432 254.944 71.036C255.259 70.6949 255.518 70.3087 255.712 69.891C255.983 69.2401 256.174 68.5604 256.282 67.866L256.792 65.2598C256.907 64.6773 256.902 62.8916 255.8 63.4734C255.499 63.6323 254.802 64.8873 254.487 65.2431C253.918 65.8845 253.843 66.5069 253.544 67.2839C253.169 68.2571 252.416 69.0683 252.069 70.0431Z" fill="#E4E7EB"/>
<path d="M308.992 83.4167C308.654 83.2683 308.325 83.0925 308.009 82.8909C307.692 83.8697 307.524 84.9013 307.511 85.9428L309.827 84.4699C310.175 84.2484 310.57 83.9405 310.563 83.4907C310.569 83.3775 310.52 83.2695 310.435 83.209C310.383 83.1858 310.327 83.1784 310.272 83.1876C309.929 83.2197 309.616 83.4097 309.292 83.5417C308.968 83.6738 308.589 83.7436 308.292 83.5476" fill="#E4E7EB"/>
<path d="M321.611 84.3214C321.359 84.3915 321.113 84.4818 320.874 84.5914C320.347 84.8653 319.988 85.3855 319.514 85.7463C319.06 86.0915 318.513 86.2811 317.977 86.4654C317.819 86.6078 317.891 86.8947 318.063 87.0198C318.247 87.1268 318.458 87.1753 318.669 87.1591C319.227 87.1717 319.814 87.1771 320.303 86.9023C320.578 86.72 320.835 86.5114 321.071 86.2792C321.642 85.7929 322.328 85.472 323.007 85.1619C323.254 85.0667 323.482 84.9273 323.681 84.7502C324.108 84.3213 324.138 83.6595 323.523 83.5135C323.026 83.3956 322.084 84.1651 321.611 84.3214Z" fill="#E4E7EB"/>
<path d="M327.369 80.9214C327.429 80.29 327.199 79.6659 326.747 79.2285C326.741 79.852 326.722 80.5163 326.377 81.0318C326.131 81.3992 325.746 81.6474 325.477 81.9973C325.207 82.3472 325.088 82.9019 325.404 83.2089C325.606 83.3651 325.851 83.4512 326.105 83.4545C326.734 83.5298 327.462 83.5717 327.903 83.1099C328.144 82.8579 328.261 82.4846 328.554 82.2993C328.664 82.2526 328.761 82.1816 328.84 82.0914C328.961 81.8955 328.769 81.6374 328.552 81.5668C328.335 81.4962 328.096 81.5294 327.878 81.4624C327.66 81.3953 327.46 81.1463 327.572 80.9447" fill="#E4E7EB"/>
<path d="M317.136 58.6874C316.814 58.7649 316.481 58.7843 316.152 58.7448C315.605 58.6454 315.18 58.238 314.739 57.9039C313.69 57.1139 312.415 56.6733 311.097 56.6452C309.898 56.6228 308.688 56.9442 307.511 56.72C307.588 57.1433 307.954 57.4607 308.345 57.6494C308.735 57.8381 309.166 57.9331 309.559 58.1179C310.188 58.4169 310.686 58.9301 310.963 59.5633C311.09 59.8552 311.169 60.1729 311.361 60.4278C311.752 60.9488 312.494 61.0632 313.149 61.0206C314.003 60.965 314.894 60.7221 315.688 61.0368C316.296 61.2775 316.731 61.8035 317.238 62.2126C317.745 62.6216 318.46 62.9252 319.042 62.6301C317.801 62.2323 316.964 61.082 316.979 59.7907C317.55 59.8427 319.195 59.8226 319.107 58.8622C319.032 58.0484 317.627 58.5996 317.136 58.6874Z" fill="#E4E7EB"/>
<path d="M309.519 64.9941C309.621 64.4296 310.183 63.9311 310.008 63.3847C309.887 63.0069 309.45 62.8204 309.054 62.8111C308.659 62.8017 308.27 62.9199 307.874 62.931C307.617 62.9173 307.358 62.921 307.101 62.942C306.316 63.0715 305.832 63.8968 305.091 64.1902C304.641 64.3687 304.136 64.3346 303.667 64.4579C302.605 64.7379 301.932 65.7445 301.19 66.556C299.989 67.8615 298.426 68.7755 296.701 69.1799C296.097 69.3201 295.448 69.4098 294.967 69.8032C294.331 70.3241 294.175 71.2171 294.033 72.028C293.642 74.2676 293.045 76.4661 292.249 78.595L294.772 78.9179C295.252 78.9793 295.749 79.0394 296.211 78.897C296.547 78.77 296.865 78.6001 297.158 78.3916C298.281 77.6922 299.539 77.2371 300.849 77.0557C301.51 76.9648 302.203 76.9481 302.823 77.1943C303.443 77.4405 303.975 77.9989 304.027 78.6654C304.573 78.495 305.169 78.6402 305.576 79.0431C305.971 79.4467 306.23 79.9644 306.316 80.5233C306.382 80.8693 306.449 81.2839 306.769 81.4291C307.031 81.5475 307.33 81.42 307.616 81.397C308.586 81.3192 309.391 82.4531 310.345 82.2578C311.367 82.0484 311.619 80.5132 312.616 80.2057C313.189 80.0291 313.993 80.2439 314.267 79.7096C314.509 79.2387 314.027 78.6953 314.076 78.168C314.138 77.5187 314.902 77.2431 315.491 76.9661C317.521 76.011 318.485 73.2715 317.501 71.251C316.918 70.0538 315.771 69.1115 315.559 67.7964C315.396 66.7845 315.794 65.6046 315.15 64.8082C314.823 64.403 314.268 64.1794 314.074 63.6959C313.951 63.3916 314 63.0464 313.934 62.7249C313.868 62.4034 313.589 62.0672 313.272 62.1505C312.353 62.3924 312.059 65.2389 311.567 65.9306C310.819 66.9819 309.283 66.2894 309.519 64.9941Z" fill="#E4E7EB"/>
<path d="M292.942 59.8093C292.628 59.7203 292.286 59.6326 291.986 59.7598C291.686 59.8871 291.511 60.3337 291.751 60.5553C293.636 60.4809 295.533 60.407 297.401 60.6664C299.555 60.9652 301.686 61.7055 303.848 61.4877C302.613 61.1184 301.357 60.8231 300.087 60.6034L297.97 60.1936C297.402 60.073 296.828 59.9832 296.251 59.9244C295.043 59.8233 294.129 60.1468 292.942 59.8093Z" fill="#E4E7EB"/>
<path d="M294.669 52.7495C294.512 52.7367 294.318 52.7258 294.237 52.8566C294.159 52.9816 294.248 53.1468 294.206 53.2869C294.149 53.4784 293.891 53.5274 293.687 53.5013C293.483 53.4752 293.263 53.4128 293.083 53.508C292.895 53.6326 292.814 53.8626 292.885 54.0726C292.958 54.2755 293.078 54.46 293.234 54.6128C293.501 54.939 293.805 55.2349 294.14 55.4948C294.79 55.9598 295.669 56.1839 296.078 56.8589C296.136 56.9897 296.225 57.1055 296.337 57.1968C296.534 57.3175 296.79 57.2257 297.001 57.132L297.742 56.8035C297.875 56.7569 297.995 56.6783 298.088 56.575C298.258 56.3522 298.154 56.0353 298.012 55.7953C297.87 55.5552 297.688 55.3068 297.718 55.0315C297.772 54.5408 298.423 54.3531 298.69 53.9332C298.96 53.51 298.784 52.9647 298.815 52.4681C298.852 51.8873 299.228 51.1318 298.623 50.6979C298.108 50.3291 297.617 50.6699 297.248 51.077C296.469 51.9356 296.101 52.8654 294.669 52.7495Z" fill="#E4E7EB"/>
<path d="M299.094 43.7925C299.333 44.2921 299.832 44.5902 300.093 45.0767C300.376 45.6041 300.344 46.2854 300.651 46.7966C300.966 47.321 301.6 47.5994 301.777 48.1959C301.97 48.8471 301.532 49.6386 301.881 50.2076C302.012 50.3957 302.21 50.515 302.426 50.5367C302.642 50.5583 302.857 50.4802 303.018 50.3214C303.324 49.9586 303.308 49.3962 302.983 49.0537C302.777 48.8485 302.48 48.7598 302.308 48.5202C302.218 48.3818 302.158 48.2231 302.133 48.0559C302.039 47.5737 302.054 47.0739 302.177 46.5994C302.223 46.479 302.235 46.3462 302.21 46.2184C302.133 45.9725 301.827 45.9551 301.613 45.841C301.126 45.5819 301.137 44.8329 301.222 44.2496C301.166 44.638 299.896 43.9775 299.763 43.7575C299.499 43.3205 299.643 42.4776 299.591 41.9948C299.021 42.2941 298.801 43.1816 299.094 43.7925Z" fill="#E4E7EB"/>
<path d="M285.569 51.5863C285.314 51.3175 284.93 51.0362 284.588 51.1984C284.327 51.3221 284.255 51.6619 284.357 51.9196C284.482 52.1698 284.674 52.3851 284.914 52.5441C285.627 53.0975 286.394 53.5969 287.016 54.2402C288.129 55.3913 288.718 56.9446 289.929 58.0051C290.172 58.251 290.494 58.4151 290.846 58.4723C291.198 58.5032 291.594 58.2908 291.635 57.9596C291.668 57.6868 291.466 57.4427 291.269 57.2405C290.798 56.7592 290.284 56.3161 289.84 55.8132C289.635 55.62 289.506 55.3667 289.475 55.0952C289.473 54.8244 289.735 54.541 290.014 54.608C289.675 54.5265 289.423 53.9948 288.926 53.8949C288.51 53.8114 288.409 54.0537 287.914 53.8539C286.971 53.4729 286.23 52.2828 285.569 51.5863Z" fill="#E4E7EB"/>
<path d="M307.03 24.6221C306.759 24.5425 306.492 24.4485 306.23 24.3404C305.528 24.1323 304.598 24.6418 304.691 25.3595C304.754 25.8364 305.204 26.1579 305.452 26.5716C305.821 27.185 305.723 27.9631 305.529 28.6501C305.481 28.8628 305.391 29.0639 305.263 29.2414C305.084 29.4289 304.87 29.5806 304.633 29.6882C303.684 30.2131 302.847 30.9144 302.169 31.7533C302.095 31.8307 302.043 31.9263 302.02 32.03C301.986 32.2723 302.233 32.4488 302.373 32.651C302.683 33.0999 302.459 33.7041 302.489 34.2466C302.48 34.4025 302.553 34.5522 302.682 34.6424C302.869 34.736 303.091 34.5769 303.192 34.3959C303.528 33.795 303.275 32.8305 303.906 32.5408C304.025 32.486 304.17 32.4629 304.249 32.3595C304.376 32.1955 304.254 31.9526 304.318 31.7566C304.414 31.4622 304.822 31.449 305.135 31.4621C305.675 31.4843 306.214 31.4135 306.729 31.2528C306.931 31.2054 307.115 31.1007 307.257 30.9515C307.446 30.7193 307.429 30.3893 307.391 30.0942C307.202 28.6229 306.73 27.2009 305.999 25.9048C306.553 25.9747 307.156 26.0351 307.634 25.7503C307.902 25.5908 308.223 25.1138 308.09 24.7892C307.88 24.2758 307.501 24.7079 307.03 24.6221Z" fill="#E4E7EB"/>
<path d="M238.61 32.3227C238.674 32.6654 238.737 33.0263 238.624 33.3563C238.511 33.6864 238.156 33.9621 237.821 33.861C237.56 33.7825 237.41 33.5222 237.225 33.3237C236.197 32.2198 233.878 32.8589 233.243 31.4933C232.983 30.9359 233.16 30.2682 232.983 29.6798C232.753 28.9804 232.078 28.5237 231.339 28.5694C231.012 28.6164 230.693 28.711 230.394 28.8501C228.386 29.65 226.278 30.1744 224.128 30.4089C223.719 30.4337 223.315 30.5068 222.924 30.6268C222.041 30.9451 221.438 31.7592 221.009 32.5899C220.579 33.4206 220.262 34.3199 219.687 35.0579C219.082 35.8335 218.234 36.3767 217.444 36.9642C217.139 37.1594 216.886 37.4238 216.704 37.7356C216.532 38.0856 216.542 38.4927 216.555 38.8818L216.717 43.6075C216.738 44.2153 216.764 44.8449 217.037 45.3888C217.379 46.0681 218.054 46.513 218.522 47.113C218.999 47.7297 219.248 48.4915 219.226 49.2697C219.216 49.5825 219.185 49.9525 219.43 50.149C219.579 50.2451 219.753 50.295 219.931 50.2923L226.358 50.8155C227.488 50.9075 228.741 51.0588 229.479 51.9156C229.828 52.3199 230.108 52.9013 230.641 52.9447C230.87 52.9633 231.093 52.8699 231.322 52.8518C231.899 52.8063 232.406 53.2423 232.727 53.7226C233.211 54.4545 233.431 55.3286 233.35 56.2014C233.298 56.7492 233.127 57.2818 233.09 57.8308C232.95 59.9201 234.731 61.7353 234.766 63.8289C234.786 65.0604 234.198 66.211 233.625 67.3029C234.55 68.6964 233.793 70.5521 234.161 72.1812C234.51 73.7268 235.806 74.9368 236.129 76.4881C236.276 77.1983 236.285 78.0723 236.915 78.438C237.191 78.572 237.497 78.633 237.804 78.6151C239.655 78.6369 241.484 78.2227 243.143 77.4062C243.922 77.0219 244.728 76.4483 244.864 75.5944C244.974 74.9059 244.623 74.1357 244.98 73.536C245.401 72.8291 246.48 72.8851 247.099 72.3417C248.105 71.46 247.321 69.7785 247.728 68.5086C248.094 67.3671 249.354 66.7607 249.979 65.7362C250.225 65.2956 250.401 64.8201 250.502 64.3262C250.788 63.146 250.966 61.9425 251.034 60.7303C251.051 59.9938 251.105 59.2586 251.197 58.5277C251.871 54.3664 256.007 51.5799 257.35 47.5823C257.478 47.2005 257.538 46.692 257.197 46.476C256.994 46.3798 256.765 46.3559 256.547 46.4083L253.584 46.7798C253.216 46.8259 252.826 46.8691 252.488 46.717C252.15 46.565 251.908 46.1398 252.087 45.8168C252.59 44.9102 251.555 43.7646 251.095 42.8355C249.857 40.3339 248.382 37.9549 246.691 35.7309C246.583 35.6165 246.515 35.4701 246.498 35.3139L247.339 35.3418C247.055 34.3288 246.586 33.2202 245.597 32.8496C245.039 32.6408 244.422 32.713 243.827 32.7453C242.123 32.8379 240.296 32.582 238.61 32.3227Z" fill="#E4E7EB"/>
<path d="M243.277 9.82811C243.723 10.3016 244.223 10.8036 244.869 10.8861C246.01 11.0319 246.83 9.85362 247.352 8.83015C247.392 9.37269 247.858 9.7847 248.402 9.75955C248.683 9.71222 248.952 9.60727 249.191 9.45128C251.451 8.21754 253.983 7.56385 256.558 7.54893C256.507 7.14529 256.769 6.76819 257.166 6.67526C257.689 6.57156 258.161 7.02379 258.414 7.49357C258.666 7.96334 258.824 8.50785 259.225 8.85948C259.626 9.21111 260.403 9.19579 260.562 8.68659C260.714 8.19774 260.204 7.78085 259.781 7.49263C259.357 7.20442 258.911 6.67099 259.196 6.24566C261.36 5.76717 263.537 5.28687 265.752 5.19176C266.129 5.20487 266.504 5.14023 266.855 5.00187C267.193 4.83634 267.461 4.46059 267.371 4.09596C266.382 4.32805 265.351 3.9397 264.763 3.1134C267.835 2.86013 271.103 2.64426 273.826 4.08842C274.153 4.78911 272.488 5.37208 272.933 6.00407C273.075 6.20564 273.36 6.22927 273.607 6.23385C275.499 6.26894 277.402 6.30335 279.273 6.01799C279.957 5.91371 280.647 5.76649 281.334 5.85106C282.477 5.9919 283.455 6.75392 284.58 7.00236C285.038 7.10348 285.551 7.10691 285.937 6.84093C286.323 6.57494 286.489 5.9693 286.172 5.62353C287.231 4.58671 288.989 4.84368 290.386 5.34006C291.783 5.83643 293.107 6.63692 294.586 6.74756C295.646 6.82691 296.721 6.54199 297.769 6.72309C298.427 6.83689 299.04 7.12949 299.684 7.30925C300.901 7.64925 302.188 7.57747 303.452 7.59384C306.676 7.63723 309.866 8.27023 312.862 9.4615C313.251 9.58825 313.608 9.799 313.908 10.0788C314.186 10.377 314.329 10.8404 314.141 11.203L311.045 10.7511C311.337 11.3247 312.092 11.4224 312.705 11.6203C313.317 11.8182 313.953 12.4942 313.584 13.022C312.92 12.8108 312.319 13.4739 311.983 14.0841C311.648 14.6942 311.239 15.4249 310.543 15.4621C309.92 15.4954 309.167 14.9654 308.76 15.4386C309.322 16.1457 309.802 16.913 310.193 17.7265C310.594 18.5615 310.88 19.6137 310.338 20.365C310.252 20.4991 310.123 20.5994 309.972 20.6485C309.529 20.7605 309.241 20.2193 308.923 19.8912C308.523 19.4778 307.918 19.3607 307.376 19.1668C306.834 18.9729 306.263 18.5915 306.22 18.018C306.194 17.6611 306.382 17.3294 306.521 16.9995C306.755 16.4436 306.857 15.8414 306.82 15.2396C306.789 14.7555 306.653 14.252 306.305 13.9137C305.957 13.5755 305.356 13.4682 304.983 13.778C304.808 13.9225 304.669 14.1537 304.442 14.1624C304.042 14.1777 303.735 13.481 303.413 13.7188C303.451 13.9722 303.398 14.2308 303.265 14.4494C302.304 15.2838 300.829 14.9308 299.59 15.2255C299.002 15.3938 298.438 15.6398 297.914 15.9568C297.718 16.0405 297.552 16.1802 297.435 16.3585C297.281 16.6585 297.451 17.0428 297.723 17.2423C298.012 17.4193 298.337 17.5299 298.674 17.5663C300.183 17.8519 301.715 18.294 302.907 19.2625C304.098 20.231 304.88 21.832 304.503 23.3197L301.526 20.4784C301.639 21.6714 301.703 22.8677 301.719 24.0672C301.738 24.3014 301.706 24.537 301.624 24.7575C301.412 25.2257 300.837 25.3833 300.333 25.4867C300.049 25.5405 299.802 25.7127 299.654 25.96C299.505 26.2073 299.47 26.5061 299.556 26.7813C299.735 27.3643 300.182 27.8189 300.591 28.2719C300.999 28.7248 301.402 29.2396 301.455 29.8471C301.509 30.4547 301.05 31.1394 300.441 31.0972C299.979 31.0652 299.637 30.6523 299.44 30.2339C299.243 29.8155 299.126 29.3494 298.83 28.9939C297.934 27.9179 295.922 28.3789 295.12 27.2318C294.704 27.703 294.562 28.3557 294.745 28.9568C295.118 28.7233 295.629 28.9402 295.909 29.2794C296.19 29.6185 296.322 30.0534 296.542 30.4343C296.84 30.9483 297.313 31.404 297.354 31.9962C297.343 32.2201 297.347 32.4445 297.365 32.6679C297.439 33.0267 297.743 33.2843 297.953 33.5842C298.443 34.282 298.419 35.2406 298.103 36.0324C297.787 36.8241 297.22 37.4857 296.658 38.1271C295.677 39.2475 294.676 40.3612 293.513 41.2916C293.181 41.5571 292.827 41.8181 292.62 42.1893C292.413 42.5605 292.402 43.0814 292.72 43.3638C292.493 43.3751 292.085 43.4868 291.858 43.4982C291.778 42.5873 291.761 41.6721 291.806 40.7589C290.909 40.3287 289.943 41.4809 290.059 42.4681C290.175 43.4553 290.889 44.2475 291.398 45.1016C291.771 45.7262 292.047 46.4545 291.923 47.1707C291.799 47.8869 291.159 48.5475 290.434 48.4844C289.281 48.3839 288.798 46.7304 287.657 46.5412C287.556 46.5176 287.45 46.5281 287.356 46.571C287.187 46.6639 287.157 46.8905 287.148 47.0833C287.101 48.0301 287.06 49.0144 287.43 49.8873C287.972 51.1643 289.37 52.2368 289.077 53.5921C287.496 52.8585 286.675 51.0885 286.302 49.3883C285.929 47.6881 285.867 45.9032 285.198 44.2959C284.69 44.946 283.623 44.4086 283.159 43.7267C282.72 43.0801 282.449 42.3323 282.022 41.677C281.595 41.0218 280.942 40.4351 280.16 40.3991C279.341 40.3613 278.63 40.9231 278.005 41.4539C277.491 41.8904 276.963 42.3441 276.663 42.9474C276.225 43.8255 276.34 44.8605 276.319 45.8409C276.296 46.9009 276.071 48.0191 275.348 48.7951C274.625 49.571 273.29 49.8413 272.492 49.142C272.076 48.7769 271.874 48.2314 271.694 47.7078C270.829 45.1839 270.108 42.6128 269.535 40.0069C269.401 40.6017 268.878 41.3683 268.378 41.0179C268.266 40.9237 268.176 40.8069 268.112 40.6751C267.18 39.0977 265.455 38.1516 263.712 37.5843C261.968 37.017 260.134 36.7524 258.41 36.129C257.444 35.7795 256.522 35.3203 255.66 34.7606C255.213 35.417 255.162 36.2657 255.528 36.9706C255.91 37.647 256.776 38.0383 257.517 37.8019C257.899 37.6797 258.223 37.4143 258.603 37.2832C258.982 37.1521 259.492 37.2165 259.658 37.582C259.817 37.9319 259.577 38.3551 259.696 38.7204C259.878 39.2768 260.718 39.3197 261.012 39.826C261.23 40.2027 261.05 40.703 260.738 41.007C260.426 41.3109 260.01 41.4777 259.629 41.6893C258.393 42.3759 257.514 43.5479 256.433 44.4598C255.353 45.3717 253.829 46.0374 252.542 45.4525C252.849 43.9003 250.998 42.7607 250.657 41.2155C250.545 40.7069 250.603 40.1667 250.443 39.6711C250.211 38.9535 249.574 38.4601 249.051 37.9163C247.77 36.5693 247.088 34.7623 247.16 32.9057C247.188 32.2671 247.306 31.6181 247.16 30.9957C247.014 30.3732 246.499 29.7707 245.859 29.799C244.399 29.8634 242.56 29.9719 241.793 28.7285C241.52 28.2847 241.401 27.6348 241.796 27.2948C242.075 27.055 242.487 27.0776 242.853 27.1136L246.143 27.4368C246.913 27.5125 247.744 27.5749 248.405 27.173C249.065 26.7712 249.351 25.7046 248.74 25.2318C248.293 24.8864 247.493 24.9051 247.363 24.3559C247.255 23.8985 247.761 23.3795 247.488 22.9972C247.291 22.7231 246.85 22.7992 246.583 23.0047C246.315 23.2101 246.121 23.5106 245.822 23.6662C245.297 23.9391 244.67 23.6794 244.105 23.5028C243.54 23.3263 242.783 23.3113 242.509 23.8353C242.203 24.4214 242.781 25.1893 242.477 25.7765C242.075 26.5529 240.713 26.1109 240.149 26.7788C239.501 27.5451 240.589 28.6878 240.371 29.6668C239.804 29.9475 239.13 29.9097 238.598 29.5673C238.073 29.211 237.787 28.5956 237.854 27.9654C237.908 27.525 238.137 27.0755 237.983 26.6593C237.859 26.3228 237.521 26.1225 237.206 25.949L234.009 24.1842C233.712 24.7343 234.088 25.4162 234.557 25.8293C235.026 26.2424 235.614 26.5536 235.922 27.0973C236.327 27.8792 236.053 28.8408 235.296 29.2915C235.203 29.3553 235.087 29.3755 234.979 29.3467C234.876 29.2862 234.801 29.1867 234.773 29.0707C234.209 27.6287 233.362 26.2069 232.008 25.4537C230.654 24.7004 228.708 24.8553 227.82 26.1242C227.609 26.4256 227.468 26.7691 227.284 27.0878C226.308 28.7807 224.215 29.5824 222.26 29.53C222.069 29.5406 221.879 29.4959 221.712 29.4014C221.396 29.1834 221.411 28.7208 221.459 28.3403L221.664 26.7254C221.705 26.4012 221.765 26.0427 222.022 25.8403C222.384 25.5549 222.907 25.735 223.368 25.7284C224.084 25.6949 224.702 25.2181 224.916 24.5348C225.106 23.8484 224.9 23.1134 224.381 22.6253C224.17 22.4269 223.886 22.1778 223.998 21.9104C224.088 21.7607 224.24 21.6585 224.412 21.6313C225.241 21.391 226.116 21.328 226.931 21.0444C227.746 20.7609 228.536 20.1807 228.729 19.3407C228.788 19.0833 228.815 18.7715 229.046 18.6438C229.163 18.5949 229.287 18.5694 229.413 18.5689C230.329 18.4388 230.993 17.632 230.945 16.7096C231.335 16.437 231.882 16.6375 232.26 16.9274C232.638 17.2172 232.971 17.6002 233.431 17.7251C234.287 17.958 235.115 17.2005 236.003 17.1969C236.376 17.1955 236.763 17.3273 237.114 17.2009C237.47 17.0727 237.682 16.7187 237.956 16.4572C238.229 16.1957 238.708 16.0361 238.961 16.3179L238.746 14.7282C239.621 14.9491 240.55 14.7814 241.292 14.2683L238.515 13.3311C238.419 13.307 238.329 13.2594 238.256 13.1925C238.054 12.9753 238.254 12.6369 238.418 12.3901C238.811 11.7996 238.877 10.8269 238.231 10.5329C237.79 10.3322 237.284 10.5731 236.861 10.8087L234.835 11.9376C234.77 12.3224 235.241 12.5405 235.533 12.7997C235.895 13.1207 236.022 13.6307 235.852 14.0833C235.683 14.536 235.253 14.8383 234.769 14.8442C235.04 15.1953 235.136 15.6501 235.03 16.0803L233.666 16.1782C233.513 16.209 233.354 16.178 233.224 16.092C233.078 15.9626 233.098 15.7359 233.064 15.544C232.983 15.0808 232.529 14.7562 232.065 14.673C231.602 14.5898 231.128 14.6964 230.669 14.8018C230.474 14.8718 230.26 14.8669 230.069 14.788C229.959 14.7167 229.876 14.6116 229.831 14.4886C229.63 14.0014 229.818 13.4287 230.141 13.0121C230.464 12.5954 230.907 12.2909 231.304 11.944C232.254 11.1115 232.952 10.0302 233.319 8.82236C234.069 8.50818 234.847 8.08131 235.597 7.76713C236.755 7.18181 238.052 6.93063 239.345 7.04182L241.887 7.09032C242.64 7.10468 243.413 7.12308 244.109 7.40971C244.805 7.69634 245.416 8.31628 245.464 9.06673C245.494 9.23944 245.432 9.41513 245.301 9.53176C245.203 9.58534 245.092 9.6104 244.98 9.60412C244.278 9.62876 243.979 9.80348 243.277 9.82811Z" fill="#E4E7EB"/>
<path d="M223.475 17.8119C223.67 17.6198 223.745 17.3305 223.67 17.0623C223.195 16.8717 222.658 16.9773 222.283 17.3349C222.138 17.4875 222.013 17.6594 221.911 17.8461C221.59 18.3921 221.306 19.0443 221.492 19.6547C221.523 19.7891 221.604 19.9051 221.718 19.9763C221.801 20.0112 221.891 20.0258 221.981 20.0192C222.335 20.0187 222.689 19.9961 223.041 19.9513C223.257 19.9238 223.508 19.8604 223.591 19.6513C223.701 19.3764 223.435 19.0654 223.513 18.7789C223.563 18.6507 223.641 18.5357 223.739 18.4418C223.837 18.346 223.887 18.2074 223.872 18.0678C223.841 17.9333 223.643 17.8571 223.572 17.9739" fill="#E4E7EB"/>
<path d="M225.272 15.2136C224.942 15.1406 224.602 15.12 224.265 15.1527C224.19 15.1505 224.116 15.1667 224.05 15.1996C223.986 15.2452 223.939 15.3101 223.918 15.3841C223.77 15.8402 224.011 16.3289 224.472 16.5069C224.593 16.5337 224.709 16.5785 224.815 16.6398C225.1 16.8527 224.919 17.2877 224.972 17.631C225.033 18.0165 225.421 18.34 225.349 18.7238C225.294 19.0262 224.958 19.2657 225.012 19.5684C225.069 19.8854 225.486 19.9807 225.82 20.0061C226.013 20.0386 226.211 20.0167 226.392 19.943C226.572 19.8239 226.701 19.6446 226.752 19.4397C226.889 19.0489 226.946 18.6365 226.921 18.225C226.92 18.0378 226.871 17.8538 226.779 17.6888C226.679 17.5582 226.568 17.4356 226.447 17.3223C225.809 16.6076 226.48 15.5415 225.272 15.2136Z" fill="#E4E7EB"/>
<path opacity="0.8" d="M308.121 72.5142C308.121 72.5142 259.831 44.8093 239.041 50.0586C239.041 50.0586 194.981 54.7976 189.875 65.2234C189.875 65.2234 175.869 21.4788 170.762 20.0207" stroke="#1665D8" stroke-width="1.22304"/>
<path opacity="0.8" d="M189.875 65.2637C197.972 43.8023 270.919 20.0207 270.919 20.0207C260.56 22.6309 239.041 50.1827 239.041 50.1827C239.041 50.1827 193.522 17.2655 170.762 20.3107C170.762 20.3107 270.991 23.5734 308.121 72.5142" stroke="#1665D8" stroke-width="1.22304"/>
<ellipse cx="171.068" cy="19.7155" rx="2.1367" ry="2.13636" fill="#1665D8"/>
<ellipse cx="189.993" cy="64.8843" rx="2.1367" ry="2.13636" fill="#1665D8"/>
<ellipse cx="271.187" cy="19.7155" rx="2.1367" ry="2.13636" fill="#1665D8"/>
<ellipse cx="308.426" cy="72.2091" rx="2.1367" ry="2.13636" fill="#1665D8"/>
<ellipse cx="238.831" cy="50.235" rx="2.1367" ry="2.13636" fill="#1665D8"/>
</svg>
