<svg width="226" height="48" viewBox="0 0 226 48" fill="none" xmlns="http://www.w3.org/2000/svg">
<rect y="5" width="32" height="32" rx="5" fill="#0083FB"/>
<path d="M25.9595 12L14.1351 23.8868L7.04054 16.7547L4 19.8113L14.1351 30L29 15.0566L25.9595 12Z" fill="white" stroke="white" stroke-linejoin="round"/>
<path d="M38.0227 9.72727V33H42.7955V17.7955H42.9886L49.0114 32.8864H52.2614L58.2841 17.8523H58.4773V33H63.25V9.72727H57.1818L50.7727 25.3636H50.5L44.0909 9.72727H38.0227ZM70.5217 39.5455C74.124 39.5455 76.0331 37.7045 77.0217 34.8864L83.8058 15.5682L78.6808 15.5455L75.0331 28.3636H74.8512L71.2376 15.5455H66.1467L72.4081 33.5L72.124 34.2386C71.4876 35.875 70.2717 35.9545 68.5672 35.4318L67.4762 39.0455C68.1694 39.3409 69.2944 39.5455 70.5217 39.5455ZM93.5339 13.7841H100.659V33H105.522V13.7841H112.647V9.72727H93.5339V13.7841ZM121.379 33.3409C126.675 33.3409 129.97 29.7159 129.97 24.3409C129.97 18.9318 126.675 15.3182 121.379 15.3182C116.084 15.3182 112.789 18.9318 112.789 24.3409C112.789 29.7159 116.084 33.3409 121.379 33.3409ZM121.402 29.5909C118.959 29.5909 117.709 27.3523 117.709 24.3068C117.709 21.2614 118.959 19.0114 121.402 19.0114C123.8 19.0114 125.05 21.2614 125.05 24.3068C125.05 27.3523 123.8 29.5909 121.402 29.5909ZM139.87 33.2841C142.688 33.2841 144.154 31.6591 144.824 30.2045H145.029V33H149.802V9.72727H144.972V18.4773H144.824C144.177 17.0568 142.779 15.3182 139.859 15.3182C136.029 15.3182 132.79 18.2955 132.79 24.2955C132.79 30.1364 135.893 33.2841 139.87 33.2841ZM141.404 29.4318C139.029 29.4318 137.734 27.3182 137.734 24.2727C137.734 21.25 139.006 19.1705 141.404 19.1705C143.756 19.1705 145.074 21.1591 145.074 24.2727C145.074 27.3864 143.734 29.4318 141.404 29.4318ZM161.988 33.3409C167.284 33.3409 170.579 29.7159 170.579 24.3409C170.579 18.9318 167.284 15.3182 161.988 15.3182C156.693 15.3182 153.397 18.9318 153.397 24.3409C153.397 29.7159 156.693 33.3409 161.988 33.3409ZM162.011 29.5909C159.568 29.5909 158.318 27.3523 158.318 24.3068C158.318 21.2614 159.568 19.0114 162.011 19.0114C164.409 19.0114 165.659 21.2614 165.659 24.3068C165.659 27.3523 164.409 29.5909 162.011 29.5909ZM184.922 21.5227H174.308V25.3636H184.922V21.5227ZM203.89 20.5227C203.458 17.3068 200.867 15.3182 196.458 15.3182C191.992 15.3182 189.049 17.3864 189.06 20.75C189.049 23.3636 190.696 25.0568 194.105 25.7386L197.128 26.3409C198.651 26.6477 199.344 27.2045 199.367 28.0795C199.344 29.1136 198.219 29.8523 196.526 29.8523C194.799 29.8523 193.651 29.1136 193.355 27.6932L188.594 27.9432C189.049 31.2841 191.89 33.3409 196.515 33.3409C201.037 33.3409 204.276 31.0341 204.287 27.5909C204.276 25.0682 202.628 23.5568 199.242 22.8636L196.083 22.2273C194.458 21.875 193.855 21.3182 193.867 20.4773C193.855 19.4318 195.037 18.75 196.537 18.75C198.219 18.75 199.219 19.6705 199.458 20.7955L203.89 20.5227Z" fill="#0284FB"/>
</svg>
