<svg width="13" height="12" viewBox="0 0 13 12" fill="none" xmlns="http://www.w3.org/2000/svg">
<path fill-rule="evenodd" clip-rule="evenodd" d="M6.40692 10.8C5.45757 10.8 4.52954 10.5185 3.74019 9.99105C2.95083 9.46362 2.3356 8.71396 1.9723 7.83688C1.609 6.95979 1.51395 5.99467 1.69915 5.06357C1.88436 4.13246 2.34152 3.27718 3.01281 2.60589C3.6841 1.93459 4.53938 1.47744 5.47049 1.29223C6.4016 1.10702 7.36672 1.20208 8.2438 1.56538C9.12089 1.92868 9.87055 2.54391 10.398 3.33326C10.9254 4.12262 11.2069 5.05065 11.2069 6C11.2069 7.27304 10.7012 8.49394 9.80104 9.39411C8.90086 10.2943 7.67996 10.8 6.40692 10.8ZM5.98266 5.57573C6.09518 5.46321 6.24779 5.4 6.40692 5.4C6.56605 5.4 6.71867 5.46321 6.83119 5.57573C6.94371 5.68826 7.00692 5.84087 7.00692 6V8.4C7.00692 8.55913 6.94371 8.71174 6.83119 8.82426C6.71867 8.93678 6.56605 9 6.40692 9C6.24779 9 6.09518 8.93678 5.98266 8.82426C5.87014 8.71174 5.80692 8.55913 5.80692 8.4V6C5.80692 5.84087 5.87014 5.68826 5.98266 5.57573ZM6.17892 3.048C6.325 2.98799 6.48885 2.98799 6.63492 3.048C6.70857 3.07656 6.77586 3.11937 6.83292 3.174C6.94256 3.28898 7.00471 3.44114 7.00692 3.6C7.00643 3.69827 6.98181 3.79491 6.93523 3.88144C6.88864 3.96797 6.82152 4.04173 6.73975 4.09624C6.65798 4.15075 6.56408 4.18434 6.46629 4.19407C6.3685 4.20379 6.26982 4.18934 6.17892 4.152C6.10621 4.12161 6.03924 4.079 5.98092 4.026C5.92531 3.96993 5.88132 3.90345 5.85146 3.83034C5.8216 3.75724 5.80647 3.67896 5.80692 3.6C5.8049 3.52129 5.82133 3.44321 5.85492 3.372C5.88531 3.29929 5.92792 3.23232 5.98092 3.174C6.03799 3.11937 6.10527 3.07656 6.17892 3.048Z" fill="#7C7D7F"/>
<path fill-rule="evenodd" clip-rule="evenodd" d="M6.40692 0C5.22024 0 4.0602 0.351894 3.0735 1.01118C2.08681 1.67047 1.31777 2.60754 0.863647 3.7039C0.409521 4.80025 0.290701 6.00665 0.522212 7.17054C0.753724 8.33443 1.32517 9.40352 2.16428 10.2426C3.0034 11.0818 4.0725 11.6532 5.23638 11.8847C6.40027 12.1162 7.60667 11.9974 8.70302 11.5433C9.79938 11.0891 10.7365 10.3201 11.3957 9.33342C12.055 8.34672 12.4069 7.18669 12.4069 6C12.4069 5.21207 12.2517 4.43185 11.9502 3.7039C11.6487 2.97594 11.2067 2.31451 10.6496 1.75736C10.0924 1.20021 9.43098 0.758251 8.70302 0.456723C7.97507 0.155195 7.19485 0 6.40692 0ZM6.40692 10.8C5.45757 10.8 4.52954 10.5185 3.74019 9.99105C2.95083 9.46362 2.3356 8.71396 1.9723 7.83688C1.609 6.95979 1.51395 5.99467 1.69915 5.06357C1.88436 4.13246 2.34152 3.27718 3.01281 2.60589C3.6841 1.93459 4.53938 1.47744 5.47049 1.29223C6.4016 1.10702 7.36672 1.20208 8.2438 1.56538C9.12089 1.92868 9.87055 2.54391 10.398 3.33326C10.9254 4.12262 11.2069 5.05065 11.2069 6C11.2069 7.27304 10.7012 8.49394 9.80104 9.39411C8.90086 10.2943 7.67996 10.8 6.40692 10.8Z" fill="#7C7D7F"/>
</svg>
