<svg width="21" height="13" viewBox="0 0 21 13" fill="none" xmlns="http://www.w3.org/2000/svg">
<path d="M4.29409 8.88215L4.00409 9.20358V1.07143C4.00409 0.787264 3.89873 0.514742 3.7112 0.31381C3.52366 0.112878 3.26931 -4.43842e-06 3.00409 -4.43842e-06C2.73887 -4.43842e-06 2.48452 0.112878 2.29698 0.31381C2.10945 0.514742 2.00409 0.787264 2.00409 1.07143V9.20358L1.71409 8.88215C1.52579 8.68039 1.27039 8.56705 1.00409 8.56705C0.737788 8.56705 0.482393 8.68039 0.29409 8.88215C0.105786 9.0839 -1.90735e-06 9.35754 -1.90735e-06 9.64286C-1.90735e-06 9.92819 0.105786 10.2018 0.29409 10.4036L2.29409 12.5464C2.38919 12.644 2.50134 12.7204 2.62409 12.7714C2.74379 12.8281 2.87322 12.8574 3.00409 12.8574C3.13496 12.8574 3.26439 12.8281 3.38409 12.7714C3.50684 12.7204 3.61899 12.644 3.71409 12.5464L5.71409 10.4036C5.80733 10.3037 5.88129 10.1851 5.93175 10.0546C5.98221 9.92404 6.00818 9.78414 6.00818 9.64286C6.00818 9.50159 5.98221 9.36169 5.93175 9.23117C5.88129 9.10064 5.80733 8.98205 5.71409 8.88215C5.62085 8.78225 5.51016 8.70301 5.38834 8.64894C5.26652 8.59488 5.13595 8.56705 5.00409 8.56705C4.87223 8.56705 4.74166 8.59488 4.61984 8.64894C4.49802 8.70301 4.38733 8.78225 4.29409 8.88215ZM9.00409 2.14285H19.0041C19.2693 2.14285 19.5237 2.02997 19.7112 1.82904C19.8987 1.62811 20.0041 1.35559 20.0041 1.07143C20.0041 0.787264 19.8987 0.514742 19.7112 0.31381C19.5237 0.112878 19.2693 -4.43842e-06 19.0041 -4.43842e-06H9.00409C8.73887 -4.43842e-06 8.48452 0.112878 8.29698 0.31381C8.10945 0.514742 8.00409 0.787264 8.00409 1.07143C8.00409 1.35559 8.10945 1.62811 8.29698 1.82904C8.48452 2.02997 8.73887 2.14285 9.00409 2.14285ZM19.0041 5.35714H9.00409C8.73887 5.35714 8.48452 5.47003 8.29698 5.67096C8.10945 5.87189 8.00409 6.14441 8.00409 6.42857C8.00409 6.71273 8.10945 6.98526 8.29698 7.18619C8.48452 7.38712 8.73887 7.5 9.00409 7.5H19.0041C19.2693 7.5 19.5237 7.38712 19.7112 7.18619C19.8987 6.98526 20.0041 6.71273 20.0041 6.42857C20.0041 6.14441 19.8987 5.87189 19.7112 5.67096C19.5237 5.47003 19.2693 5.35714 19.0041 5.35714ZM19.0041 10.7143H9.00409C8.73887 10.7143 8.48452 10.8272 8.29698 11.0281C8.10945 11.229 8.00409 11.5016 8.00409 11.7857C8.00409 12.0699 8.10945 12.3424 8.29698 12.5433C8.48452 12.7443 8.73887 12.8572 9.00409 12.8572H19.0041C19.2693 12.8572 19.5237 12.7443 19.7112 12.5433C19.8987 12.3424 20.0041 12.0699 20.0041 11.7857C20.0041 11.5016 19.8987 11.229 19.7112 11.0281C19.5237 10.8272 19.2693 10.7143 19.0041 10.7143Z" fill="#34AABA"/>
</svg>
