<svg width="14" height="14" viewBox="0 0 14 14" fill="none" xmlns="http://www.w3.org/2000/svg">
<path d="M13.6667 3.82684C13.6672 3.7391 13.6503 3.65213 13.6172 3.5709C13.584 3.48968 13.5351 3.4158 13.4733 3.35351L10.6467 0.526841C10.5844 0.465053 10.5105 0.416169 10.4293 0.382993C10.348 0.349817 10.2611 0.333 10.1733 0.333507C10.0856 0.333 9.99861 0.349817 9.91739 0.382993C9.83616 0.416169 9.76228 0.465053 9.69999 0.526841L7.81332 2.41351L0.526657 9.70017C0.46487 9.76247 0.415986 9.83634 0.38281 9.91757C0.349634 9.99879 0.332817 10.0858 0.333324 10.1735V13.0002C0.333324 13.177 0.403562 13.3466 0.528586 13.4716C0.653611 13.5966 0.82318 13.6668 0.999991 13.6668H3.82666C3.91994 13.6719 4.01325 13.6573 4.10054 13.624C4.18782 13.5907 4.26713 13.5394 4.33332 13.4735L11.58 6.18684L13.4733 4.33351C13.5342 4.26889 13.5838 4.19453 13.62 4.11351C13.6264 4.06037 13.6264 4.00665 13.62 3.95351C13.6231 3.92247 13.6231 3.89121 13.62 3.86017L13.6667 3.82684ZM3.55332 12.3335H1.66666V10.4468L8.28666 3.82684L10.1733 5.71351L3.55332 12.3335ZM11.1133 4.77351L9.22666 2.88684L10.1733 1.94684L12.0533 3.82684L11.1133 4.77351Z" fill="#34AABA"/>
</svg>
